<svg width="61" height="60" viewBox="0 0 61 60" fill="none" xmlns="http://www.w3.org/2000/svg">
<ellipse cx="30.5" cy="30" rx="30.5" ry="30" fill="white"/>
<path d="M41.1196 24.768C41.1196 26.0693 40.821 27.264 40.2236 28.352C39.6263 29.4187 38.709 30.2827 37.4716 30.944C36.2343 31.6053 34.6983 31.936 32.8636 31.936H29.4716L29.4716 40H23.9996L23.9996 17.536H32.8636C34.6556 17.536 36.1703 17.8453 37.4076 18.464C38.645 19.0827 39.573 19.936 40.1916 21.024C40.8103 22.112 41.1196 23.36 41.1196 24.768ZM32.4476 27.584C33.493 27.584 34.2716 27.3387 34.7836 26.848C35.2956 26.3573 35.5516 25.664 35.5516 24.768C35.5516 23.872 35.2956 23.1787 34.7836 22.688C34.2716 22.1973 33.493 21.952 32.4476 21.952H29.4716V27.584H32.4476Z" fill="black"/>
</svg>
